<?xml version="1.0" encoding="utf-8"?>
<!-- Generator: Adobe Illustrator 16.0.0, SVG Export Plug-In . SVG Version: 6.00 Build 0)  -->
<!DOCTYPE svg PUBLIC "-//W3C//DTD SVG 1.1//EN" "http://www.w3.org/Graphics/SVG/1.1/DTD/svg11.dtd">
<svg version="1.1" id="Layer_1" xmlns="http://www.w3.org/2000/svg" xmlns:xlink="http://www.w3.org/1999/xlink" x="0px" y="0px"
	 width="16px" height="16px" viewBox="0 0 16 16" enable-background="new 0 0 16 16" xml:space="preserve">
<g>
	<polygon fill="#010101" points="5.754,11.852 12.907,11.852 12.907,10.504 8.603,10.504 5.754,10.845 	"/>
	<polygon fill="#010101" points="7.279,9.524 7.279,7.448 2.11,2.279 0.036,4.355 5.205,9.524 	"/>
	<polygon fill="#010101" points="13.186,0.97 2.698,0.97 4.043,2.315 12.622,2.315 12.622,4.021 12.907,4.307 14.618,4.307 
		14.618,13.684 4.043,13.684 4.043,10.233 2.698,8.888 2.698,15.03 15.964,15.03 15.964,3.748 	"/>
	<rect x="8.603" y="7.724" fill="#010101" width="4.305" height="1.345"/>
	<polygon fill="#010101" points="12.907,4.944 7.344,4.944 7.344,5.643 7.988,6.289 12.907,6.289 	"/>
</g>
</svg>
