<?xml version="1.0" encoding="utf-8"?>
<!-- Generator: Adobe Illustrator 16.0.0, SVG Export Plug-In . SVG Version: 6.00 Build 0)  -->
<!DOCTYPE svg PUBLIC "-//W3C//DTD SVG 1.1//EN" "http://www.w3.org/Graphics/SVG/1.1/DTD/svg11.dtd">
<svg version="1.1" id="Layer_1" xmlns="http://www.w3.org/2000/svg" xmlns:xlink="http://www.w3.org/1999/xlink" x="0px" y="0px"
	 width="16px" height="16px" viewBox="0 0 16 16" enable-background="new 0 0 16 16" xml:space="preserve">
<path fill="#010101" d="M8,4.799c1.016,0,1.844-0.826,1.844-1.844S9.016,1.11,8,1.11c-1.015,0-1.844,0.828-1.844,1.846
	S6.985,4.799,8,4.799z M8,2.441c0.282,0,0.513,0.229,0.513,0.515c0,0.282-0.23,0.513-0.513,0.513s-0.513-0.23-0.513-0.513
	C7.487,2.67,7.718,2.441,8,2.441z M9.92,6.561H6.061l-3.907,6.246v0.709h1.126l0.397-0.63l3.657,1.829v1.161h1.332v-1.161
	l3.658-1.829l0.393,0.63h1.13v-0.704L9.92,6.561z M7.334,13.226l-2.949-1.475l0.79-1.262l2.159,1.079V13.226z M7.334,10.081
	l-1.45-0.726l0.914-1.463h0.536V10.081z M8.666,7.892h0.517l0.924,1.47l-1.44,0.719V7.892z M8.666,13.226v-1.657l2.149-1.074
	l0.795,1.259L8.666,13.226z M12.592,2.956c0,1.039-0.34,2.022-0.967,2.83h-0.834l-0.053-0.053V4.734
	c0.341-0.526,0.522-1.137,0.522-1.778s-0.182-1.255-0.522-1.781V0.178l0.053-0.055h0.834C12.252,0.93,12.592,1.917,12.592,2.956z
	 M5.232,0.178v0.993c-0.34,0.529-0.521,1.14-0.521,1.781s0.182,1.255,0.521,1.781v0.999L5.18,5.786H4.352
	C3.725,4.978,3.38,3.992,3.38,2.953c0-1.036,0.34-2.022,0.967-2.829H5.18L5.232,0.178z"/>
</svg>
