<?xml version="1.0" encoding="utf-8"?>
<!-- Generator: Adobe Illustrator 16.0.0, SVG Export Plug-In . SVG Version: 6.00 Build 0)  -->
<!DOCTYPE svg PUBLIC "-//W3C//DTD SVG 1.1//EN" "http://www.w3.org/Graphics/SVG/1.1/DTD/svg11.dtd">
<svg version="1.1" id="Layer_1" xmlns="http://www.w3.org/2000/svg" xmlns:xlink="http://www.w3.org/1999/xlink" x="0px" y="0px"
	 width="16px" height="16px" viewBox="0 0 16 16" enable-background="new 0 0 16 16" xml:space="preserve">
<g>
	<path fill="#010101" d="M8,0.158C3.668,0.158,0.157,3.669,0.157,8c0,4.332,3.512,7.842,7.843,7.842s7.845-3.51,7.845-7.842
		C15.844,3.669,12.331,0.158,8,0.158z M14.019,8.636H8.577v1.782c1.422,0.105,2.77,0.604,3.926,1.459
		c0.28,0.209,0.34,0.606,0.132,0.89c-0.209,0.28-0.606,0.344-0.89,0.132c-0.936-0.689-2.021-1.099-3.168-1.202v2.108
		c0,0.353-0.286,0.636-0.635,0.636c-0.354,0-0.638-0.283-0.638-0.636v-2.097c-1.106,0.12-2.155,0.526-3.06,1.196
		c-0.114,0.083-0.247,0.123-0.378,0.123c-0.195,0-0.388-0.089-0.513-0.258c-0.209-0.283-0.149-0.681,0.133-0.89
		c1.127-0.833,2.435-1.328,3.817-1.451V8.636H1.865C1.512,8.636,1.228,8.353,1.228,8c0-0.352,0.284-0.635,0.637-0.635h5.439V5.589
		C5.913,5.463,4.597,4.962,3.465,4.118c-0.282-0.209-0.341-0.606-0.13-0.89c0.21-0.28,0.609-0.341,0.891-0.129
		c0.91,0.678,1.963,1.084,3.078,1.207V2.195c0-0.352,0.283-0.635,0.638-0.635c0.349,0,0.635,0.283,0.635,0.635v2.123
		c1.139-0.104,2.221-0.507,3.153-1.19c0.28-0.209,0.681-0.146,0.887,0.138c0.209,0.283,0.148,0.681-0.138,0.887
		C11.33,4.999,9.991,5.491,8.577,5.597v1.769h5.442c0.349,0,0.635,0.283,0.635,0.635C14.654,8.353,14.368,8.636,14.019,8.636z"/>
</g>
</svg>
