<?xml version="1.0" encoding="utf-8"?>
<!-- Generator: Adobe Illustrator 16.0.0, SVG Export Plug-In . SVG Version: 6.00 Build 0)  -->
<!DOCTYPE svg PUBLIC "-//W3C//DTD SVG 1.1//EN" "http://www.w3.org/Graphics/SVG/1.1/DTD/svg11.dtd">
<svg version="1.1" id="Layer_1" xmlns="http://www.w3.org/2000/svg" xmlns:xlink="http://www.w3.org/1999/xlink" x="0px" y="0px"
	 width="16px" height="16px" viewBox="0 0 16 16" enable-background="new 0 0 16 16" xml:space="preserve">
<g>
	<path fill="#010101" d="M8,6.958c-1.57,0-2.85,1.278-2.85,2.85c0,1.57,1.279,2.847,2.85,2.847c1.571,0,2.85-1.276,2.85-2.847
		C10.849,8.236,9.571,6.958,8,6.958z"/>
	<path fill="#010101" d="M13.419,2.069h-1.357c-0.233-1.031-1.155-1.807-2.255-1.807H8c-1.103,0-2.021,0.775-2.256,1.807H2.579
		c-1.276,0-2.316,1.04-2.316,2.316v9.033c0,1.279,1.04,2.319,2.316,2.319h10.841c1.279,0,2.318-1.04,2.318-2.319V4.385
		C15.738,3.109,14.699,2.069,13.419,2.069z M8,2.069h1.808v1.021H8V2.069z M2.185,5.436c0-0.501,0.401-0.905,0.901-0.905
		c0.498,0,0.902,0.404,0.902,0.905c0,0.498-0.404,0.902-0.902,0.902C2.586,6.338,2.185,5.934,2.185,5.436z M8,14.183
		c-2.415,0-4.379-1.961-4.379-4.376S5.584,5.428,8,5.428s4.379,1.964,4.379,4.379S10.415,14.183,8,14.183z"/>
</g>
</svg>
