<?xml version="1.0" encoding="utf-8"?>
<!-- Generator: Adobe Illustrator 16.0.0, SVG Export Plug-In . SVG Version: 6.00 Build 0)  -->
<!DOCTYPE svg PUBLIC "-//W3C//DTD SVG 1.1//EN" "http://www.w3.org/Graphics/SVG/1.1/DTD/svg11.dtd">
<svg version="1.1" id="Layer_1" xmlns="http://www.w3.org/2000/svg" xmlns:xlink="http://www.w3.org/1999/xlink" x="0px" y="0px"
	 width="16px" height="16px" viewBox="0 0 16 16" enable-background="new 0 0 16 16" xml:space="preserve">
<path fill="#010101" d="M14.224,5.099l1.457-1.547h-1.457c-0.354-1.97-2.079-3.466-4.147-3.466c-2.323,0-4.214,1.891-4.214,4.217
	c0,0.613,0.132,1.195,0.368,1.719C4.554,5.797,3.004,5.043,1.789,3.828C1.755,3.794,1.727,3.76,1.693,3.726
	C1.665,3.69,1.631,3.654,1.598,3.617L1.016,2.995l-0.29,0.802c-0.906,2.538-0.268,5.401,1.632,7.301
	c0.017,0.014,0.033,0.028,0.048,0.045c-0.211,0.017-0.425,0.031-0.645,0.031c-0.045,0-0.093-0.003-0.141-0.006l-0.996-0.039
	l0.366,0.773c1.153,2.437,3.632,4.012,6.315,4.012c3.852,0,6.988-3.137,6.988-6.991c0-0.687-0.104-1.358-0.296-1.997l1.683-1.156
	L14.224,5.099z"/>
</svg>
