<?xml version="1.0" encoding="utf-8"?>
<!-- Generator: Adobe Illustrator 16.0.0, SVG Export Plug-In . SVG Version: 6.00 Build 0)  -->
<!DOCTYPE svg PUBLIC "-//W3C//DTD SVG 1.1//EN" "http://www.w3.org/Graphics/SVG/1.1/DTD/svg11.dtd">
<svg version="1.1" id="Layer_1" xmlns="http://www.w3.org/2000/svg" xmlns:xlink="http://www.w3.org/1999/xlink" x="0px" y="0px"
	 width="16px" height="16px" viewBox="0 0 16 16" enable-background="new 0 0 16 16" xml:space="preserve">
<path fill="#010101" d="M12.667,12.424l0.325-0.116v-1.287h1.727l-0.002-3.451c0-1.719-0.686-3.33-1.932-4.536
	c-1.232-1.19-2.865-1.848-4.595-1.848c0,0-0.514-0.026-0.581-0.04c-0.295-0.572-0.888-0.97-1.578-0.97H5.542v0.896L4.962,1.038
	l-3.68,5.52V8.92h3.076V6.917h0.665c0.225,0.39,0.639,0.652,1.118,0.652c0.694,0,1.255-0.55,1.288-1.235h1.624l0.003,0.662
	l-4.809,3.396v1.916l0.325,0.116c0.322,0.112,0.539,0.418,0.539,0.754c0,0.339-0.217,0.644-0.539,0.757l-0.325,0.116v1.773h8.743
	v-1.773l-0.325-0.116c-0.322-0.113-0.539-0.418-0.539-0.757C12.127,12.842,12.345,12.536,12.667,12.424z"/>
</svg>
