<?xml version="1.0" encoding="utf-8"?>
<!-- Generator: Adobe Illustrator 16.0.0, SVG Export Plug-In . SVG Version: 6.00 Build 0)  -->
<!DOCTYPE svg PUBLIC "-//W3C//DTD SVG 1.1//EN" "http://www.w3.org/Graphics/SVG/1.1/DTD/svg11.dtd">
<svg version="1.1" id="Layer_1" xmlns="http://www.w3.org/2000/svg" xmlns:xlink="http://www.w3.org/1999/xlink" x="0px" y="0px"
	 width="82.763px" height="72.811px" viewBox="0 0 82.763 72.811" enable-background="new 0 0 82.763 72.811" xml:space="preserve">
<polygon fill="#212427" points="72.76,70.449 66.068,58.715 39.291,58.715 32.599,70.459 33.943,72.811 71.416,72.811 "/>
<polygon fill="#212427" points="40.627,18.792 33.937,30.529 36.619,35.23 49.998,35.23 51.34,32.871 43.318,18.792 "/>
<polygon fill="#212427" points="62.049,51.66 55.359,39.926 49.999,39.926 43.31,51.668 44.648,54.021 60.703,54.021 "/>
<polygon fill="#EF3936" points="23.218,54.021 36.619,54.021 39.3,49.322 32.607,37.58 29.922,37.58 21.885,51.68 "/>
<polygon fill="#212427" points="51.336,0.002 44.645,11.741 58.036,35.23 71.414,35.232 72.756,32.87 54.025,0.002 "/>
<polygon fill="#212427" points="32.606,0 29.922,0 23.231,11.741 29.924,23.489 32.603,23.489 39.297,11.741 "/>
<polygon fill="#212427" points="1.812,54.021 15.2,54.021 28.589,30.529 21.896,18.789 19.214,18.789 0.473,51.67 "/>
<polygon fill="#212427" points="31.267,58.715 17.872,58.715 11.181,70.465 12.516,72.811 25.906,72.811 32.603,61.066 "/>
<polygon fill="#212427" points="76.779,39.928 63.384,39.928 62.049,42.273 68.744,54.023 82.119,54.023 83.471,51.662 "/>
</svg>
